<?xml version="1.0" ?><!DOCTYPE svg  PUBLIC '-//W3C//DTD SVG 1.1//EN'  'http://www.w3.org/Graphics/SVG/1.1/DTD/svg11.dtd'><svg enable-background="new 0 0 128 128" id="Слой_1" version="1.1" viewBox="0 0 128 128" xml:space="preserve" xmlns="http://www.w3.org/2000/svg" xmlns:xlink="http://www.w3.org/1999/xlink"><circle cx="64" cy="64" fill="#DEE2DD" r="62"/><g><g><path d="M90.2,47.3H37.8c-8.3,0-15,6.7-15,15v48c11,9.8,25.4,15.7,41.2,15.7s30.3-5.9,41.2-15.7v-48    C105.2,54,98.5,47.3,90.2,47.3z" fill="#FFFFFF"/></g><g><path d="M90.2,46.1H37.8c-9,0-16.2,7.3-16.2,16.2v46.8c0.8,0.8,1.6,1.5,2.5,2.2V62.3c0-7.6,6.2-13.8,13.8-13.8    h52.4c7.6,0,13.8,6.2,13.8,13.8v49.1c0.9-0.7,1.7-1.5,2.5-2.2V62.3C106.5,53.4,99.2,46.1,90.2,46.1z" fill="#502D4B"/></g><g><path d="M70.7,40.7c0-3.7-3-6.7-6.7-6.7s-6.7,3-6.7,6.7v6.7H44V54c0,3.7,3,6.7,6.7,6.7h26.7c3.7,0,6.7-3,6.7-6.7    v-6.7H70.7V40.7z M64,44.5c-2.1,0-3.8-1.7-3.8-3.8S61.9,37,64,37s3.8,1.7,3.8,3.8S66.1,44.5,64,44.5z" fill="#898288"/></g><g><path d="M91.9,104.4h-33c-0.7,0-1.2,0.6-1.2,1.2s0.6,1.2,1.2,1.2h33c0.7,0,1.2-0.6,1.2-1.2S92.6,104.4,91.9,104.4z    " fill="#502D4B"/></g><g><circle cx="38.9" cy="79" fill="#E074A3" r="7.5"/></g><g><circle cx="38.9" cy="105.7" fill="#E074A3" r="7.5"/></g><g><path d="M38.9,96.9c-4.8,0-8.8,3.9-8.8,8.8s3.9,8.8,8.8,8.8s8.8-3.9,8.8-8.8S43.7,96.9,38.9,96.9z M38.9,111.9    c-3.4,0-6.2-2.8-6.2-6.2s2.8-6.2,6.2-6.2s6.2,2.8,6.2,6.2S42.3,111.9,38.9,111.9z" fill="#502D4B"/></g><g><path d="M38.9,70.2c-4.8,0-8.8,3.9-8.8,8.8s3.9,8.8,8.8,8.8s8.8-3.9,8.8-8.8S43.7,70.2,38.9,70.2z M38.9,85.2    c-3.4,0-6.2-2.8-6.2-6.2s2.8-6.2,6.2-6.2s6.2,2.8,6.2,6.2S42.3,85.2,38.9,85.2z" fill="#502D4B"/></g><g><path d="M91.9,77.8h-33c-0.7,0-1.2,0.6-1.2,1.2s0.6,1.2,1.2,1.2h33c0.7,0,1.2-0.6,1.2-1.2S92.6,77.8,91.9,77.8z" fill="#502D4B"/></g><g><path d="M84,46.1H71.9v-5.4c0-4.4-3.6-7.9-7.9-7.9s-7.9,3.6-7.9,7.9v5.4H44c-0.7,0-1.2,0.6-1.2,1.2V54    c0,4.4,3.6,7.9,7.9,7.9h26.7c4.4,0,7.9-3.6,7.9-7.9v-6.7C85.2,46.6,84.7,46.1,84,46.1z M82.8,54c0,3-2.4,5.4-5.4,5.4H50.7    c-3,0-5.4-2.4-5.4-5.4v-5.4h12.1c0.7,0,1.2-0.6,1.2-1.2v-6.7c0-3,2.4-5.4,5.4-5.4s5.4,2.4,5.4,5.4v6.7c0,0.7,0.6,1.2,1.2,1.2h12.1    V54z" fill="#502D4B"/></g><g><path d="M64,35.8c-2.8,0-5,2.2-5,5s2.2,5,5,5s5-2.2,5-5S66.8,35.8,64,35.8z M64,43.2c-1.4,0-2.5-1.1-2.5-2.5    s1.1-2.5,2.5-2.5s2.5,1.1,2.5,2.5S65.4,43.2,64,43.2z" fill="#502D4B"/></g></g></svg>