<?xml version="1.0" encoding="iso-8859-1"?>
<!-- Generator: Adobe Illustrator 19.0.0, SVG Export Plug-In . SVG Version: 6.00 Build 0)  -->
<svg version="1.1" id="Capa_1" xmlns="http://www.w3.org/2000/svg" xmlns:xlink="http://www.w3.org/1999/xlink" x="0px" y="0px"
	 viewBox="0 0 512 512" style="enable-background:new 0 0 512 512;" xml:space="preserve">
<path style="fill:#4CE0A1;" d="M469.943,332.912c-13.667,0-25.775,6.672-33.246,16.937c-1.595-0.308-3.222-0.524-4.877-0.643
	c-13.151-13.504-30.199-23.193-49.328-27.252v72.647H129.507v-50.512c-1.857,1.637-3.651,3.344-5.377,5.117
	c-1.655,0.118-3.282,0.334-4.877,0.643c-7.471-10.265-19.58-16.937-33.246-16.937c-8.952,0-17.235,2.863-23.984,7.723
	c-14.43-11.371-32.162-18.738-51.522-20.426v117.722h491.06v-97.296C494.812,335.776,478.896,332.912,469.943,332.912z"/>
<rect x="129.509" y="10" style="fill:#B3FFF9;" width="252.98" height="115.67"/>
<rect x="129.509" y="125.67" style="fill:#26ADE4;" width="252.98" height="268.93"/>
<path style="fill:#18BB7D;" d="M466.599,201.06c0.495-2.312,0.755-4.71,0.755-7.17c0-18.831-15.266-34.097-34.097-34.097
	s-34.097,15.266-34.097,34.097c0,2.46,0.26,4.858,0.755,7.17c-10.677,9.307-17.425,23.007-17.425,38.284
	c0,28.038,22.729,50.767,50.767,50.767s50.767-22.729,50.767-50.767C484.023,224.067,477.276,210.367,466.599,201.06z"/>
<path style="fill:#4CE0A1;" d="M112.083,201.06c0.495-2.312,0.755-4.71,0.755-7.17c0-18.831-15.266-34.097-34.097-34.097
	s-34.097,15.266-34.097,34.097c0,2.46,0.261,4.858,0.755,7.17c-10.677,9.307-17.425,23.007-17.425,38.284
	c0,28.038,22.729,50.767,50.767,50.767s50.767-22.729,50.767-50.767C129.507,224.067,122.76,210.367,112.083,201.06z"/>
<polygon style="fill:#F9AE62;" points="10.563,437.931 10.439,502 501.437,502 501.561,437.931 "/>
<path d="M449.74,480.35c-2.631,0-5.21-1.069-7.07-2.93c-0.46-0.46-0.88-0.98-1.25-1.52c-0.36-0.55-0.67-1.13-0.92-1.73
	c-0.25-0.601-0.44-1.23-0.57-1.87c-0.13-0.64-0.19-1.3-0.19-1.95c0-0.66,0.06-1.31,0.19-1.96c0.13-0.64,0.32-1.26,0.57-1.87
	c0.25-0.6,0.56-1.18,0.92-1.72c0.37-0.55,0.79-1.06,1.25-1.53c1.86-1.859,4.439-2.92,7.07-2.92c2.63,0,5.21,1.061,7.069,2.92
	c0.46,0.471,0.88,0.98,1.24,1.53c0.36,0.54,0.67,1.12,0.92,1.72c0.25,0.61,0.441,1.23,0.57,1.87c0.13,0.65,0.2,1.3,0.2,1.96
	c0,0.65-0.07,1.311-0.2,1.95c-0.13,0.64-0.32,1.27-0.57,1.87s-0.559,1.18-0.92,1.73c-0.36,0.54-0.78,1.061-1.24,1.52
	c-0.46,0.46-0.97,0.88-1.52,1.24c-0.54,0.359-1.12,0.67-1.73,0.92c-0.6,0.25-1.229,0.439-1.87,0.569
	C451.049,480.28,450.39,480.35,449.74,480.35z"/>
<path d="M409.737,480.347h-347.6c-5.522,0-10-4.478-10-10c0-5.523,4.478-10,10-10h347.601c5.522,0,10,4.477,10,10
	C419.737,475.869,415.26,480.347,409.737,480.347z"/>
<rect x="225.329" y="324.44" style="fill:#FCC595;" width="61.33" height="70.17"/>
<rect x="159.509" y="158.67" style="fill:#FFFFFF;" width="43.951" height="43.951"/>
<path d="M203.46,212.617h-43.95c-5.522,0-10-4.478-10-10v-43.951c0-5.522,4.478-10,10-10h43.95c5.523,0,10,4.478,10,10v43.951
	C213.46,208.14,208.982,212.617,203.46,212.617z M169.51,192.617h23.95v-23.951h-23.95V192.617z"/>
<rect x="308.54" y="158.67" style="fill:#FFFFFF;" width="43.951" height="43.951"/>
<path d="M352.489,212.617h-43.95c-5.523,0-10-4.478-10-10v-43.951c0-5.522,4.477-10,10-10h43.95c5.522,0,10,4.478,10,10v43.951
	C362.489,208.14,358.012,212.617,352.489,212.617z M318.539,192.617h23.95v-23.951h-23.95V192.617z"/>
<rect x="234.029" y="158.67" style="fill:#FFFFFF;" width="43.95" height="43.951"/>
<path d="M277.976,212.617h-43.951c-5.522,0-10-4.478-10-10v-43.951c0-5.522,4.478-10,10-10h43.951c5.522,0,10,4.478,10,10v43.951
	C287.976,208.14,283.497,212.617,277.976,212.617z M244.023,192.617h23.951v-23.951h-23.951V192.617z"/>
<rect x="159.509" y="49.07" style="fill:#FFFFFF;" width="43.951" height="43.951"/>
<path d="M203.46,103.018h-43.95c-5.522,0-10-4.478-10-10v-43.95c0-5.523,4.478-10,10-10h43.95c5.523,0,10,4.477,10,10v43.95
	C213.46,98.54,208.982,103.018,203.46,103.018z M169.51,83.018h23.95v-23.95h-23.95V83.018z"/>
<rect x="308.54" y="49.07" style="fill:#FFFFFF;" width="43.951" height="43.951"/>
<path d="M352.489,103.018h-43.95c-5.523,0-10-4.478-10-10v-43.95c0-5.523,4.477-10,10-10h43.95c5.522,0,10,4.477,10,10v43.95
	C362.489,98.54,358.012,103.018,352.489,103.018z M318.539,83.018h23.95v-23.95h-23.95V83.018z"/>
<rect x="234.029" y="49.07" style="fill:#FFFFFF;" width="43.95" height="43.951"/>
<path d="M277.976,103.018h-43.951c-5.522,0-10-4.478-10-10v-43.95c0-5.523,4.478-10,10-10h43.951c5.522,0,10,4.477,10,10v43.95
	C287.976,98.54,283.497,103.018,277.976,103.018z M244.023,83.018h23.951v-23.95h-23.951V83.018z"/>
<rect x="159.509" y="238.26" style="fill:#FFFFFF;" width="43.951" height="43.951"/>
<path d="M203.46,292.213h-43.95c-5.522,0-10-4.477-10-10v-43.95c0-5.522,4.478-10,10-10h43.95c5.523,0,10,4.478,10,10v43.95
	C213.46,287.735,208.982,292.213,203.46,292.213z M169.51,272.213h23.95v-23.95h-23.95V272.213z"/>
<rect x="308.54" y="238.26" style="fill:#FFFFFF;" width="43.951" height="43.951"/>
<path d="M352.489,292.213h-43.95c-5.523,0-10-4.477-10-10v-43.95c0-5.522,4.477-10,10-10h43.95c5.522,0,10,4.478,10,10v43.95
	C362.489,287.735,358.012,292.213,352.489,292.213z M318.539,272.213h23.95v-23.95h-23.95V272.213z"/>
<rect x="234.029" y="238.26" style="fill:#FFFFFF;" width="43.95" height="43.951"/>
<path d="M277.976,292.213h-43.951c-5.522,0-10-4.477-10-10v-43.95c0-5.522,4.478-10,10-10h43.951c5.522,0,10,4.478,10,10v43.95
	C287.976,287.735,283.497,292.213,277.976,292.213z M244.023,272.213h23.951v-23.95h-23.951V272.213z"/>
<rect x="78.74" y="394.6" style="fill:#FFFFFF;" width="354.52" height="43.33"/>
<path d="M511.562,340.635c0-3.217-1.547-6.236-4.157-8.115c-9.205-6.627-27.447-9.607-37.461-9.607
	c-9.514,0-18.743,2.687-26.687,7.549v-31.174c28.766-4.783,50.767-29.842,50.767-59.944c0-15.693-6.065-30.695-16.808-41.953
	c0.092-1.163,0.138-2.331,0.138-3.5c0-24.315-19.781-44.098-44.097-44.098c-18.364,0-34.141,11.284-40.765,27.282V10
	c0-5.523-4.478-10-10-10H129.507c-5.522,0-10,4.477-10,10v167.08c-6.622-16.001-22.401-27.287-40.767-27.287
	c-24.315,0-44.097,19.782-44.097,44.098c0,1.169,0.046,2.337,0.138,3.499c-10.742,11.258-16.808,26.26-16.808,41.954
	c0,30.102,22.001,55.161,50.767,59.944v26.61c-2.119,0.761-4.19,1.664-6.199,2.707c-15.185-10.436-32.736-16.751-51.173-18.357
	c-2.787-0.243-5.559,0.695-7.625,2.59S0.5,317.407,0.5,320.21L0.439,501.98c-0.005,2.655,1.046,5.204,2.922,7.084
	C5.236,510.943,7.783,512,10.439,512h490.998c5.516,0,9.989-4.465,10-9.98L511.562,340.635z M444.782,355.734
	c5.844-8.029,15.25-12.822,25.161-12.822c6.69,0,15.871,1.723,21.618,3.826v81.192h-48.305v-70.534
	C443.819,356.909,444.332,356.353,444.782,355.734z M139.507,135.67h232.984v103.213c-0.001,0.154-0.002,0.307-0.002,0.461
	c0,0.156,0.001,0.312,0.002,0.468v144.789h-75.825v-60.166c0-5.522-4.478-10-10-10h-61.334c-5.523,0-10,4.478-10,10v60.166h-75.825
	V135.67z M392.492,335.228c11.463,4.237,21.922,10.866,30.765,19.55v29.823h-30.765V335.228z M392.492,314.172V284.37
	c8.444,7.652,19.043,12.968,30.765,14.917v29.606C413.868,322.371,403.504,317.403,392.492,314.172z M276.667,384.601h-41.334
	v-50.166h41.334V384.601z M119.508,335.445c-8.531-7.39-19.372-11.841-30.767-12.458v-23.699
	c11.723-1.949,22.322-7.266,30.767-14.919V335.445z M111.168,355.734c1.955,2.685,5.093,4.184,8.34,4.112V384.6H88.741v-41.566
	C97.627,343.827,105.865,348.448,111.168,355.734z M88.741,404.601h334.516v23.33H88.741V404.601z M406.486,208.599
	c2.74-2.389,3.968-6.077,3.207-9.632c-0.354-1.652-0.533-3.36-0.533-5.076c0-13.287,10.809-24.098,24.097-24.098
	s24.097,10.811,24.097,24.098c0,1.716-0.18,3.424-0.533,5.076c-0.761,3.555,0.467,7.243,3.207,9.632
	c8.895,7.753,13.996,18.959,13.996,30.745c0,19.029-13.107,35.055-30.767,39.525v-16.9c0.13-0.117,0.258-0.239,0.384-0.364
	l18.247-18.247c3.905-3.905,3.905-10.237,0-14.143c-3.906-3.904-10.236-3.904-14.143,0l-4.488,4.488V212.92c0-5.522-4.478-10-10-10
	s-10,4.478-10,10v20.784l-4.488-4.488c-3.906-3.904-10.236-3.904-14.143,0c-3.905,3.905-3.905,10.237,0,14.143l18.247,18.247
	c0.125,0.125,0.253,0.247,0.384,0.364v16.9c-17.565-4.446-30.625-20.324-30.765-39.219v-0.596
	C392.575,227.374,397.665,216.288,406.486,208.599z M139.507,20h232.984v95.67H139.507V20z M37.975,239.344
	c0-11.786,5.102-22.992,13.995-30.745c2.741-2.389,3.969-6.076,3.208-9.632c-0.354-1.652-0.533-3.36-0.533-5.076
	c0-13.287,10.81-24.098,24.097-24.098s24.097,10.811,24.097,24.098c0,1.713-0.18,3.422-0.534,5.08
	c-0.76,3.554,0.469,7.24,3.208,9.628c8.895,7.753,13.996,18.959,13.996,30.745c0,19.029-13.107,35.055-30.767,39.525v-16.9
	c0.13-0.117,0.258-0.239,0.384-0.364l18.247-18.247c3.905-3.905,3.905-10.237,0-14.143c-3.906-3.904-10.236-3.904-14.143,0
	l-4.488,4.488V212.92c0-5.522-4.478-10-10-10s-10,4.478-10,10v20.784l-4.488-4.488c-3.906-3.904-10.236-3.904-14.142,0
	c-3.905,3.905-3.905,10.237,0,14.143l18.247,18.247c0.126,0.125,0.253,0.247,0.384,0.364v16.9
	C51.081,274.399,37.975,258.373,37.975,239.344z M20.501,331.815c12.84,2.781,24.893,8.449,35.332,16.675
	c3.503,2.76,8.411,2.869,12.032,0.261c0.289-0.208,0.581-0.41,0.876-0.608v79.789H20.5C20.5,427.932,20.5,331.815,20.501,331.815z
	 M491.456,492H20.458l0.086-44.069h470.998L491.456,492z"/>
<g>
</g>
<g>
</g>
<g>
</g>
<g>
</g>
<g>
</g>
<g>
</g>
<g>
</g>
<g>
</g>
<g>
</g>
<g>
</g>
<g>
</g>
<g>
</g>
<g>
</g>
<g>
</g>
<g>
</g>
</svg>
