<svg height="512" viewBox="0 0 64 64" width="512" xmlns="http://www.w3.org/2000/svg"><g id="Student-School-Education-Avatar-University"><path d="m22.44 35.42-2.74-1.22-.6.63-2.1 2.17-3-3-3 3-2.1-2.17-.6-.63-2.74 1.22a6 6 0 0 0 -3.56 5.48v8.1h24v-8.1a6 6 0 0 0 -3.56-5.48z" fill="#ff5023"/><path d="m58.44 35.42-2.74-1.22-.6.63-2.1 2.17-3-3-3 3-2.1-2.17-.6-.63-2.74 1.22a6 6 0 0 0 -3.56 5.48v8.1h24v-8.1a6 6 0 0 0 -3.56-5.48z" fill="#00ccb3"/><path d="m55.7 34.2-2.7 2.8-3-3h1l2-1z" fill="#00b39d"/><path d="m50 34-3 3-2.7-2.8 2.7-1.2 2 1z" fill="#00b39d"/><path d="m37.7 39.2-.6.63a6.846 6.846 0 0 1 .2-.81z" fill="#1a6fb0"/><path d="m35 38 2.3 1.02a6.846 6.846 0 0 0 -.2.81l-2.1 2.17-3-3h1z" fill="#1a6fb0"/><path d="m32 39-3 3-2.1-2.17a6.846 6.846 0 0 0 -.2-.81l2.3-1.02 2 1z" fill="#1a6fb0"/><path d="m40.44 40.42-2.74-1.22-.6.63-2.1 2.17-3-3-3 3-2.1-2.17-.6-.63-2.74 1.22a6 6 0 0 0 -3.56 5.48v8.1h24v-8.1a6 6 0 0 0 -3.56-5.48z" fill="#3d9ae2"/><path d="m26.9 39.83-.6-.63.4-.18a6.846 6.846 0 0 1 .2.81z" fill="#1a6fb0"/><path d="m19.7 34.2-2.7 2.8-3-3h1l2-1z" fill="#ed1c24"/><path d="m14 34-3 3-2.7-2.8 2.7-1.2 2 1z" fill="#ed1c24"/><path d="m17 29v4l-2 1h-2l-2-1v-4z" fill="#ffc477"/><path d="m24 22a2.006 2.006 0 0 1 -2 2h-2v-4h2a2.015 2.015 0 0 1 2 2z" fill="#ffb655"/><path d="m8 20v4h-2a2.006 2.006 0 0 1 -2-2 2.015 2.015 0 0 1 2-2z" fill="#ffb655"/><path d="m21 17v2h-.66a3.014 3.014 0 0 1 -2.91-2.27l-.43-1.73a4 4 0 0 1 -4 4h-6v-2a7 7 0 1 1 14 0z" fill="#57565c"/><path d="m17 29v2.32a6.958 6.958 0 0 1 -6 0v-2.32z" fill="#ffb655"/><path d="m21 19v4a5.474 5.474 0 0 1 -.08 1 6.952 6.952 0 0 1 -3.92 5.32 6.982 6.982 0 0 1 -9.92-5.32 5.474 5.474 0 0 1 -.08-1v-4h6a4 4 0 0 0 4-4l.43 1.73a3.014 3.014 0 0 0 2.91 2.27z" fill="#ffc477"/><path d="m35 34v4l-2 1h-2l-2-1v-4z" fill="#ffc477"/><path d="m42 27a2.006 2.006 0 0 1 -2 2h-2v-4h2a2.015 2.015 0 0 1 2 2z" fill="#ffb655"/><path d="m26 25v4h-2a2.006 2.006 0 0 1 -2-2 2.015 2.015 0 0 1 2-2z" fill="#ffb655"/><path d="m39 22v2h-.66a3.014 3.014 0 0 1 -2.91-2.27l-.43-1.73a4 4 0 0 1 -4 4h-6v-2a7 7 0 1 1 14 0z" fill="#57565c"/><path d="m35 34v2.32a6.958 6.958 0 0 1 -6 0v-2.32z" fill="#ffb655"/><path d="m39 24v4a5.474 5.474 0 0 1 -.08 1 6.952 6.952 0 0 1 -3.92 5.32 6.982 6.982 0 0 1 -9.92-5.32 5.474 5.474 0 0 1 -.08-1v-4h6a4 4 0 0 0 4-4l.43 1.73a3.014 3.014 0 0 0 2.91 2.27z" fill="#ffc477"/><path d="m53 29v4l-2 1h-2l-2-1v-4z" fill="#ffc477"/><path d="m60 22a2.006 2.006 0 0 1 -2 2h-2v-4h2a2.015 2.015 0 0 1 2 2z" fill="#ffb655"/><path d="m44 20v4h-2a2.006 2.006 0 0 1 -2-2 2.015 2.015 0 0 1 2-2z" fill="#ffb655"/><path d="m57 17v2h-.66a3.014 3.014 0 0 1 -2.91-2.27l-.43-1.73a4 4 0 0 1 -4 4h-6v-2a7 7 0 1 1 14 0z" fill="#57565c"/><path d="m53 29v2.32a6.958 6.958 0 0 1 -6 0v-2.32z" fill="#ffb655"/><path d="m57 19v4a5.474 5.474 0 0 1 -.08 1 6.952 6.952 0 0 1 -3.92 5.32 6.982 6.982 0 0 1 -9.92-5.32 5.474 5.474 0 0 1 -.08-1v-4h6a4 4 0 0 0 4-4l.43 1.73a3.014 3.014 0 0 0 2.91 2.27z" fill="#ffc477"/><g fill="#ee8700"><path d="m28 26h2v2h-2z"/><path d="m34 26h2v2h-2z"/><path d="m10 21h2v2h-2z"/><path d="m16 21h2v2h-2z"/><path d="m46 21h2v2h-2z"/><path d="m52 21h2v2h-2z"/></g></g></svg>